<svg width="137" height="54" viewBox="0 0 137 54" fill="none" xmlns="http://www.w3.org/2000/svg">
<path d="M22.0366 54L20.0366 42.4H9.47656L7.63656 54H0.436563L9.31656 3.92H19.7966L29.3166 54H22.0366ZM10.3566 36.56H19.0766L14.5166 10.16L10.3566 36.56ZM46.9778 20.8H41.6178V45.52C41.6178 46.48 41.7511 47.12 42.0178 47.44C42.3378 47.7067 42.9778 47.84 43.9378 47.84H46.9778V54H41.8578C36.8445 54 34.3378 51.6533 34.3378 46.96V20.8H30.6578V14.96H34.3378V8.32H41.6178V14.96H46.9778V20.8ZM58.4778 54H51.2778V0.479998H58.4778V54ZM80.0566 14.96H87.2566V54H80.0566V50.88C79.3632 52.96 77.7099 54 75.0966 54H72.2166C67.4166 54 65.0166 51.6533 65.0166 46.96V22.08C65.0166 17.3333 67.4166 14.96 72.2166 14.96H75.0966C77.7099 14.96 79.3632 16 80.0566 18.08V14.96ZM74.6166 48.16H77.4166C78.3766 48.16 79.0432 47.9467 79.4166 47.52C79.8432 47.0933 80.0566 46.3733 80.0566 45.36V23.6C80.0566 22.5867 79.8432 21.8667 79.4166 21.44C79.0432 21.0133 78.3766 20.8 77.4166 20.8H74.6166C73.6566 20.8 73.0166 20.96 72.6966 21.28C72.3766 21.5467 72.2166 22.16 72.2166 23.12V45.84C72.2166 46.8 72.3766 47.44 72.6966 47.76C73.0166 48.0267 73.6566 48.16 74.6166 48.16ZM106.485 14.96H109.285C114.138 14.96 116.565 17.3333 116.565 22.08V54H109.365V23.12C109.365 22.16 109.205 21.5467 108.885 21.28C108.565 20.96 107.925 20.8 106.965 20.8H104.165C103.205 20.8 102.511 21.0133 102.085 21.44C101.711 21.8667 101.525 22.5867 101.525 23.6V54H94.3247V14.96H101.525V18.08C102.218 16 103.871 14.96 106.485 14.96ZM136.743 20.8H131.383V45.52C131.383 46.48 131.517 47.12 131.783 47.44C132.103 47.7067 132.743 47.84 133.703 47.84H136.743V54H131.623C126.61 54 124.103 51.6533 124.103 46.96V20.8H120.423V14.96H124.103V8.32H131.383V14.96H136.743V20.8Z" fill="white"/>
</svg>
